<?xml version="1.0" encoding="utf-8"?>
<svg xmlns="http://www.w3.org/2000/svg" xmlns:svg="http://www.w3.org/2000/svg" version="1.1" viewBox="0 0 1400 340">
	<title>The titlepage for the Standard Ebooks edition of Table-Talk, by William Hazlitt</title>
	<g aria-label="TABLE-TALK">
		<path d="m 387.49561,68.245613 h 18.33918 V 130 h 17.59064 V 68.245613 h 18.33919 V 52.807016 h -54.26901 z"/>
		<path d="M 487.73538,52.807016 H 471.45467 L 440.29678,130 h 18.90058 l 5.70761,-15.4386 h 29.38011 L 499.99269,130 h 18.90058 z m 0.5614,46.31579 h -17.40351 l 8.60819,-22.45614 h 0.18713 z"/>
		<path d="M 526.81286,52.807016 V 130 h 29.28655 c 16,0 25.26316,-8.79532 25.26316,-21.52047 0,-12.444443 -6.83041,-17.777776 -16.46784,-19.461987 6.54971,-3.368421 9.63743,-9.450292 9.63743,-16.561404 0,-14.690058 -10.47954,-19.649123 -23.76609,-19.649123 z M 544.4035,83.029239 V 66.374268 h 1.40351 c 7.67251,0 11.69591,2.339181 11.69591,7.859649 0,6.456141 -4.11696,8.795322 -11.69591,8.795322 z m 0,33.403511 V 98.187134 h 5.52047 c 8.32748,0 12.91228,2.526316 12.91228,9.637426 0,6.08187 -4.5848,8.60819 -12.91228,8.60819 z"/>
		<path d="M 611.72076,52.807016 H 594.13012 V 130 h 44.16374 v -15.4386 h -26.5731 z"/>
		<path d="M 696.10819,52.807016 H 651.94445 V 130 h 44.16374 v -15.4386 h -26.5731 V 99.029239 h 25.4503 V 83.590642 h -25.4503 V 68.245613 h 26.5731 z"/>
		<path d="m 711.22076,95.754385 v 14.315795 h 30.12865 V 95.754385 Z"/>
		<path d="m 748.08771,68.245613 h 18.33918 V 130 h 17.59065 V 68.245613 h 18.33918 V 52.807016 h -54.26901 z"/>
		<path d="m 848.32747,52.807016 h -16.2807 L 800.88888,130 h 18.90058 l 5.7076,-15.4386 h 29.38012 L 860.58478,130 h 18.90059 z m 0.56141,46.31579 h -17.40351 l 8.60819,-22.45614 h 0.18713 z"/>
		<path d="M 904.9956,52.807016 H 887.40496 V 130 h 44.16374 v -15.4386 h -26.5731 z"/>
		<path d="M 1015.4883,130 979.5585,89.391812 1010.6228,52.807016 H 989.2895 L 962.80996,84.33918 V 52.807016 H 945.21932 V 130 h 17.59064 V 97.251461 L 991.25441,130 Z"/>
	</g>
	<g aria-label="WILLIAM HAZLITT">
		<path d="m 390.37226,290 h 14.59649 l 16.49123,-57.89474 h -14.59649 l -9.89474,39.7193 h -0.35087 l -10.52632,-39.7193 h -9.96491 l -10.52632,39.7193 h -0.35088 l -9.89473,-39.7193 H 340.68805 L 357.17928,290 h 14.66667 l 9.26315,-32.49123 z"/>
		<path d="M 442.81744,232.10526 H 429.62446 V 290 h 13.19298 z"/>
		<path d="M 469.47314,232.10526 H 456.28016 V 290 h 33.1228 v -11.57895 h -19.92982 z"/>
		<path d="M 514.08389,232.10526 H 500.89091 V 290 h 33.1228 v -11.57895 h -19.92982 z"/>
		<path d="M 558.69464,232.10526 H 545.50165 V 290 h 13.19299 z"/>
		<path d="M 601.56086,232.10526 H 589.35034 L 565.98192,290 h 14.17544 l 4.2807,-11.57895 h 22.03508 L 610.75385,290 h 14.17543 z m 0.42106,34.73685 H 588.92929 L 595.38543,250 h 0.14035 z"/>
		<path d="m 679.97861,290 h 13.19299 l -5.19299,-57.89474 h -14.03508 l -12.84211,33.40351 -12.8421,-33.40351 H 634.22423 L 629.03125,290 h 13.19298 l 2.73684,-34.31579 h 0.35088 l 11.85965,33.96491 h 7.85964 l 11.85965,-33.96491 h 0.35088 z"/>
		<path d="m 740.83825,266.77193 h 18.66667 V 290 h 13.19298 v -57.89474 h -13.19298 v 23.08772 H 740.83825 V 232.10526 H 727.64527 V 290 h 13.19298 z"/>
		<path d="M 815.50273,232.10526 H 803.2922 L 779.92378,290 h 14.17544 l 4.2807,-11.57895 h 22.03509 L 824.69571,290 h 14.17544 z m 0.42105,34.73685 H 802.87115 L 809.32729,250 h 0.14035 z"/>
		<path d="m 894.69244,232.10526 h -47.64913 v 11.57895 h 24.56141 L 842.97314,290 h 49.82456 v -11.57895 h -26.80702 z"/>
		<path d="M 918.25601,232.10526 H 905.06303 V 290 h 33.1228 v -11.57895 h -19.92982 z"/>
		<path d="M 962.86679,232.10526 H 949.6738 V 290 h 13.19299 z"/>
		<path d="m 969.25381,243.68421 h 13.75438 V 290 h 13.19299 v -46.31579 h 13.75442 v -11.57895 h -40.70179 z"/>
		<path d="m 1017.017,243.68421 h 13.7544 V 290 h 13.193 v -46.31579 h 13.7543 v -11.57895 h -40.7017 z"/>
	</g>
</svg>
